PathFileType	4	(X/Y/Z)	Patient4_TMGait_0pt5_01_left_36.trc.trc
DataRate	CameraRate	NumFrames	NumMarkers	Units	OrigDataRate	OrigDataStartFrame	OrigNumFrames
75.268817204301	75.268817204301	4	33	mm	75.268817204301	18	       141
Frame#	Time	L.ASIS			Sacral			L.Shoulder			Chest			R.Shoulder			Neck			R.ASIS			R.Thigh.Superior			R.Thigh.Lateral			R.Thigh.Inferior			R.Patella			L.Thigh.Superior			L.Thigh.Lateral			L.Thigh.Inferior			L.Patella			L.Shank.Superior			L.Shank.Lateral			L.Shank.Inferior			R.Shank.Superior			R.Shank.Lateral			R.Shank.Inferior			R.Heel			R.Midfoot.Superior			R.Midfoot.Lateral			R.Toe			L.Heel			L.Midfoot.Lateral			L.Midfoot.Superior			L.Toe			L.Elbow			L.Wrist			R.Elbow			R.Wrist			
		X1	Y1	Z1	X2	Y2	Z2	X3	Y3	Z3	X4	Y4	Z4	X5	Y5	Z5	X6	Y6	Z6	X7	Y7	Z7	X8	Y8	Z8	X9	Y9	Z9	X10	Y10	Z10	X11	Y11	Z11	X12	Y12	Z12	X13	Y13	Z13	X14	Y14	Z14	X15	Y15	Z15	X16	Y16	Z16	X17	Y17	Z17	X18	Y18	Z18	X19	Y19	Z19	X20	Y20	Z20	X21	Y21	Z21	X22	Y22	Z22	X23	Y23	Z23	X24	Y24	Z24	X25	Y25	Z25	X26	Y26	Z26	X27	Y27	Z27	X28	Y28	Z28	X29	Y29	Z29	X30	Y30	Z30	X31	Y31	Z31	X32	Y32	Z32	X33	Y33	Z33	

18	48.175857142857	785.607846634595	960.338477384980	351.693070868461	592.874420097355	1006.379061249193	534.194227710504	743.675503651086	1441.288252148984	352.778476390288	867.852117179362	1359.902175845846	491.881244009532	813.592121687003	1427.376895161775	679.514894636600	771.259723976141	1493.621522265852	504.815308780353	828.236309589604	939.624568025218	624.646738436745	835.351610199898	731.128104504644	597.709283438389	739.756883675691	632.725797174839	662.196908057667	801.954884950826	570.303736321879	580.637381231601	787.595234418433	484.140602993625	586.151402448430	859.107945492883	774.124727763412	378.997959739174	811.687653482790	647.365232537670	301.248750638914	913.008023965159	586.128859164121	364.686770985705	941.843324172537	523.456140556074	358.998821405651	928.831022226817	452.991365967493	347.710022415029	869.384655396345	319.475738894031	296.981874592478	963.006949279555	225.223286427658	350.946578061098	752.549499529522	398.614102353702	592.071190853878	672.297973453001	300.925533553866	651.537268720872	706.780505861949	203.871873464115	587.433041868491	559.821265858190	44.297074571719	552.415774354026	732.222008109179	96.715041981481	591.673380930931	642.029807668910	36.475328507322	628.282209430850	850.348808115421	41.440740538146	620.404931762686	891.372811073592	36.747976113899	390.392155823220	964.613542163946	47.835238512379	309.883805371541	1027.613853106014	132.921533995602	328.545544755049	1163.857572614843	117.044196178070	302.853315279384	590.511487516265	1121.755890553189	255.634132679236	569.400216848274	859.743313640739	267.804613090976	954.374283049379	1115.675965470233	776.792903221626	1193.732480369008	1130.822204683919	688.662748347610	
19	48.189142857143	785.817541513221	959.257116685402	350.376440517722	593.288000860449	1005.613728577350	533.211575850689	743.644366432365	1440.323431517523	351.021320320539	867.955775130216	1359.161930362012	490.063131479890	813.902209218494	1426.834804277370	677.620066915525	771.358262964175	1492.815738435322	502.984334106120	828.620694231350	938.895510123131	623.481650540299	834.048595814718	729.955680821838	596.812081338756	737.455284002245	632.271032740391	661.424323683538	798.821075608376	569.332907277169	579.834767366522	783.647857010154	483.268959624807	585.222681475912	858.978611674159	772.951646278554	377.764929691511	810.399996271783	645.683284886913	300.912244355700	912.270297833236	584.834906726975	363.462330585221	941.152516092107	522.909443905962	358.562095297661	929.158835743922	452.621504460570	347.522250533550	871.746450364136	318.003159234527	297.427862799003	967.137686319495	225.453961042973	351.236342174551	748.063783154357	397.953081979497	591.321238178841	667.366438485646	300.814988625787	651.150797852309	701.018583636269	203.519552145663	587.011910208684	553.122161403252	44.309961173244	552.397825481913	725.511343914496	96.655943495895	591.572147547623	635.293546189270	36.484413495121	628.274777779396	843.601003924489	41.444467598906	620.464275858108	898.479410588323	36.655606448844	391.572883840977	971.381726372890	47.834659756487	310.851451512691	1033.726641667730	133.351570284540	329.001149250190	1169.975740298688	118.375247962023	303.154099365437	590.582803916129	1120.758001240922	254.133158617079	570.034980909877	858.671424343249	266.594108094802	957.651957615441	1116.728385699184	773.713456835902	1194.860694571432	1140.136232118939	682.719940979437	
20	48.202428571429	786.392743527368	958.077434321493	349.012565747038	593.922958864790	1004.681086011347	532.020498674318	743.534329160821	1439.188509948391	348.993142348479	868.015197647284	1358.435646413722	488.049503969862	814.036197032198	1426.339103436963	675.503569146121	771.289718809814	1491.935447902861	500.861885260191	829.160375651338	938.082683395287	622.269344787841	832.942540802797	728.690166887836	595.806244091677	735.403800348968	631.716704249814	660.558111818414	795.978760237967	568.277546952138	578.929080012339	779.978049214150	482.259458307048	584.173180588049	859.626715646441	771.903097045515	376.417979140962	809.704744059297	643.936769138450	300.738769313411	912.256275899415	583.589329167642	362.121665053739	940.977320608986	521.999162607560	358.043055316971	929.483469735665	451.666231552244	347.425067139910	872.903381632984	316.561372970324	298.072321611269	969.121421272362	224.939136228541	351.747859938105	743.823073909632	397.175045713873	590.491161033233	662.618757857923	300.640428607098	650.705804367704	695.328721240501	203.083425051767	586.528232811954	546.424293607562	44.287016372734	552.365388684015	718.784548795872	96.590243618814	591.445574632345	628.554237931984	36.474379186726	628.254428939334	836.849301450552	41.462271909267	620.519914124396	901.659765459817	36.881876647667	393.062347760131	974.135491881362	47.456702795979	312.000800686554	1036.784635190034	132.510326384794	329.673145759929	1172.685892433370	116.881213703299	303.370714738502	591.096603372358	1119.319498021275	252.273203815462	571.748012415700	857.116512094036	264.844172677175	960.212714886730	1117.591999113680	770.718612284039	1195.080932147661	1148.560144045056	677.015873849152	
21	48.215714285714	787.353543728705	956.777143878917	347.617877616813	594.780721897596	1003.571047444825	530.602936382018	743.371941013818	1437.863627984756	346.695733764335	868.048229736792	1357.698210407696	485.848484041343	814.000536941748	1425.863597700170	673.172335263411	771.065877139268	1490.961966561539	498.452109246078	829.860268410203	937.160179550202	621.022546762276	832.064717954352	727.315573349296	594.706983444341	733.635362231690	631.038409432106	659.597956383373	793.473986752250	567.113174682082	577.926376480458	776.622845975475	481.084973308947	583.005378370193	860.986784681046	770.878374328582	375.004740653484	809.597462736875	642.121631737488	300.667243387314	912.849775810944	582.322238544323	360.782506819966	941.197963215044	520.690049292473	357.545043561833	929.791839776916	450.132441110673	347.444760656702	873.048798900977	315.035608824341	298.821043671852	969.265158450559	223.632344668635	352.460289494356	739.855755619382	396.253379932564	589.577662112279	658.073888390237	300.385744321836	650.194958168854	689.715965376443	202.546344565089	585.980570239735	539.726600445365	44.221070598857	552.319256742530	712.038324244115	96.514246947490	591.288319069099	621.813259503799	36.440672638229	628.220625411783	830.097813775212	41.484775657999	620.572293399705	901.380630714649	37.203311425785	394.697360393958	973.423883732019	46.613367820194	313.231945991887	1037.238662324615	130.398700790191	330.571344483482	1172.525506480519	112.724156246798	303.621412334098	592.020440478938	1117.447276781389	250.071459093532	574.503438090421	855.095290595866	262.577923946881	962.075814040492	1118.226442503540	767.852184724268	1194.479505106767	1156.039124222195	671.575688129379	
